<?xml version="1.0" encoding="UTF-8"?><svg xmlns="http://www.w3.org/2000/svg" xmlns:xlink="http://www.w3.org/1999/xlink" fill-opacity="1" color-rendering="auto" color-interpolation="auto" text-rendering="auto" stroke="black" stroke-linecap="square" width="1110" stroke-miterlimit="10" shape-rendering="auto" stroke-opacity="1" fill="black" stroke-dasharray="none" font-weight="normal" stroke-width="1" height="505" font-family="'Dialog'" font-style="normal" stroke-linejoin="miter" font-size="12px" stroke-dashoffset="0" image-rendering="auto">
  <!--Generated by ySVG 2.6-->
  <defs id="genericDefs"/>
  <g>
    <defs id="defs1">
      <clipPath clipPathUnits="userSpaceOnUse" id="clipPath1">
        <path d="M0 0 L1110 0 L1110 505 L0 505 L0 0 Z"/>
      </clipPath>
      <clipPath clipPathUnits="userSpaceOnUse" id="clipPath2">
        <path d="M232 177 L1342 177 L1342 682 L232 682 L232 177 Z"/>
      </clipPath>
    </defs>
    <g fill="white" text-rendering="geometricPrecision" shape-rendering="geometricPrecision" transform="translate(-232,-177)" stroke="white">
      <rect x="232" width="1110" height="505" y="177" clip-path="url(#clipPath2)" stroke="none"/>
    </g>
    <g fill="rgb(255,204,0)" text-rendering="geometricPrecision" shape-rendering="geometricPrecision" transform="matrix(1,0,0,1,-232,-177)" stroke="rgb(255,204,0)">
      <rect x="772.439" y="293.7635" clip-path="url(#clipPath2)" width="78" rx="4" ry="4" height="53" stroke="none"/>
    </g>
    <g text-rendering="geometricPrecision" stroke-miterlimit="1.45" shape-rendering="geometricPrecision" transform="matrix(1,0,0,1,-232,-177)" stroke-linecap="butt">
      <rect x="772.439" y="293.7635" clip-path="url(#clipPath2)" fill="none" width="78" rx="4" ry="4" height="53"/>
      <text x="797.4322" xml:space="preserve" y="324.9774" clip-path="url(#clipPath2)" font-family="sans-serif" stroke="none">Reps</text>
    </g>
    <g fill="rgb(255,204,0)" text-rendering="geometricPrecision" shape-rendering="geometricPrecision" transform="matrix(1,0,0,1,-232,-177)" stroke="rgb(255,204,0)">
      <rect x="918.8551" y="292.966" clip-path="url(#clipPath2)" width="78" rx="4" ry="4" height="53" stroke="none"/>
    </g>
    <g text-rendering="geometricPrecision" stroke-miterlimit="1.45" shape-rendering="geometricPrecision" transform="matrix(1,0,0,1,-232,-177)" stroke-linecap="butt">
      <rect x="918.8551" y="292.966" clip-path="url(#clipPath2)" fill="none" width="78" rx="4" ry="4" height="53"/>
      <text x="922.8424" xml:space="preserve" y="324.1798" clip-path="url(#clipPath2)" font-family="sans-serif" stroke="none">Sales Teams</text>
    </g>
    <g fill="rgb(255,204,0)" text-rendering="geometricPrecision" shape-rendering="geometricPrecision" transform="matrix(1,0,0,1,-232,-177)" stroke="rgb(255,204,0)">
      <rect x="1045.9517" y="289.8533" clip-path="url(#clipPath2)" width="78" rx="4" ry="4" height="53" stroke="none"/>
    </g>
    <g text-rendering="geometricPrecision" stroke-miterlimit="1.45" shape-rendering="geometricPrecision" transform="matrix(1,0,0,1,-232,-177)" stroke-linecap="butt">
      <rect x="1045.9517" y="289.8533" clip-path="url(#clipPath2)" fill="none" width="78" rx="4" ry="4" height="53"/>
      <text x="1062.6069" xml:space="preserve" y="313.7166" clip-path="url(#clipPath2)" font-family="sans-serif" stroke="none">Product </text>
      <text x="1049.939" xml:space="preserve" y="328.4177" clip-path="url(#clipPath2)" font-family="sans-serif" stroke="none">Grid/Portfolio</text>
    </g>
    <g fill="rgb(255,204,0)" text-rendering="geometricPrecision" shape-rendering="geometricPrecision" transform="matrix(1,0,0,1,-232,-177)" stroke="rgb(255,204,0)">
      <rect x="585.9678" y="360.0644" clip-path="url(#clipPath2)" width="78" rx="4" ry="4" height="53" stroke="none"/>
    </g>
    <g text-rendering="geometricPrecision" stroke-miterlimit="1.45" shape-rendering="geometricPrecision" transform="matrix(1,0,0,1,-232,-177)" stroke-linecap="butt">
      <rect x="585.9678" y="360.0644" clip-path="url(#clipPath2)" fill="none" width="78" rx="4" ry="4" height="53"/>
      <text x="593.9512" xml:space="preserve" y="383.9277" clip-path="url(#clipPath2)" font-family="sans-serif" stroke="none">Interactions</text>
      <text x="608.9688" xml:space="preserve" y="398.6288" clip-path="url(#clipPath2)" font-family="sans-serif" stroke="none">(calls)</text>
    </g>
    <g fill="rgb(255,153,204)" text-rendering="geometricPrecision" shape-rendering="geometricPrecision" transform="matrix(1,0,0,1,-232,-177)" stroke="rgb(255,153,204)">
      <rect x="1124.5975" y="443.4669" clip-path="url(#clipPath2)" width="78" rx="4" ry="4" height="53" stroke="none"/>
    </g>
    <g text-rendering="geometricPrecision" stroke-miterlimit="1.45" shape-rendering="geometricPrecision" transform="matrix(1,0,0,1,-232,-177)" stroke-linecap="butt">
      <rect x="1124.5975" y="443.4669" clip-path="url(#clipPath2)" fill="none" width="78" rx="4" ry="4" height="53"/>
      <text x="1129.5868" xml:space="preserve" y="459.9796" clip-path="url(#clipPath2)" font-family="sans-serif" stroke="none">Veeva CRM </text>
      <text x="1142.9198" xml:space="preserve" y="474.6808" clip-path="url(#clipPath2)" font-family="sans-serif" stroke="none">Product</text>
      <text x="1149.2538" xml:space="preserve" y="489.3819" clip-path="url(#clipPath2)" font-family="sans-serif" stroke="none">Local</text>
    </g>
    <g fill="rgb(255,204,0)" text-rendering="geometricPrecision" shape-rendering="geometricPrecision" transform="matrix(1,0,0,1,-232,-177)" stroke="rgb(255,204,0)">
      <rect x="520.7121" y="263.5492" clip-path="url(#clipPath2)" width="78" rx="4" ry="4" height="53" stroke="none"/>
    </g>
    <g text-rendering="geometricPrecision" stroke-miterlimit="1.45" shape-rendering="geometricPrecision" transform="matrix(1,0,0,1,-232,-177)" stroke-linecap="butt">
      <rect x="520.7121" y="263.5492" clip-path="url(#clipPath2)" fill="none" width="78" rx="4" ry="4" height="53"/>
      <text x="532.0265" xml:space="preserve" y="294.7631" clip-path="url(#clipPath2)" font-family="sans-serif" stroke="none">e-detailing</text>
    </g>
    <g fill="rgb(255,204,0)" text-rendering="geometricPrecision" shape-rendering="geometricPrecision" transform="matrix(1,0,0,1,-232,-177)" stroke="rgb(255,204,0)">
      <rect x="427.1932" y="313.3703" clip-path="url(#clipPath2)" width="78" rx="4" ry="4" height="53" stroke="none"/>
    </g>
    <g text-rendering="geometricPrecision" stroke-miterlimit="1.45" shape-rendering="geometricPrecision" transform="matrix(1,0,0,1,-232,-177)" stroke-linecap="butt">
      <rect x="427.1932" y="313.3703" clip-path="url(#clipPath2)" fill="none" width="78" rx="4" ry="4" height="53"/>
      <text x="458.1893" xml:space="preserve" y="344.5841" clip-path="url(#clipPath2)" font-family="sans-serif" stroke="none">AE</text>
    </g>
    <g fill="rgb(255,204,0)" text-rendering="geometricPrecision" shape-rendering="geometricPrecision" transform="matrix(1,0,0,1,-232,-177)" stroke="rgb(255,204,0)">
      <rect x="262" y="236" clip-path="url(#clipPath2)" width="78" rx="4" ry="4" height="53" stroke="none"/>
    </g>
    <g text-rendering="geometricPrecision" stroke-miterlimit="1.45" shape-rendering="geometricPrecision" transform="matrix(1,0,0,1,-232,-177)" stroke-linecap="butt">
      <rect x="262" y="236" clip-path="url(#clipPath2)" fill="none" width="78" rx="4" ry="4" height="53"/>
      <text x="299.333" xml:space="preserve" y="259.8633" clip-path="url(#clipPath2)" font-family="sans-serif" stroke="none"> </text>
      <text x="271.9932" xml:space="preserve" y="274.5645" clip-path="url(#clipPath2)" font-family="sans-serif" stroke="none">Material ID</text>
    </g>
    <g fill="rgb(255,153,204)" text-rendering="geometricPrecision" shape-rendering="geometricPrecision" transform="matrix(1,0,0,1,-232,-177)" stroke="rgb(255,153,204)">
      <rect x="251" y="363" clip-path="url(#clipPath2)" width="103" rx="4" ry="4" height="53" stroke="none"/>
    </g>
    <g text-rendering="geometricPrecision" stroke-miterlimit="1.45" shape-rendering="geometricPrecision" transform="matrix(1,0,0,1,-232,-177)" stroke-linecap="butt">
      <rect x="251" y="363" clip-path="url(#clipPath2)" fill="none" width="103" rx="4" ry="4" height="53"/>
      <text x="271.8262" xml:space="preserve" y="379.5127" clip-path="url(#clipPath2)" font-family="sans-serif" stroke="none">PromoMats</text>
      <text x="281.8223" xml:space="preserve" y="394.2139" clip-path="url(#clipPath2)" font-family="sans-serif" stroke="none">Product</text>
      <text x="263.9746" xml:space="preserve" y="408.915" clip-path="url(#clipPath2)" font-family="sans-serif" stroke="none">Local + Global</text>
    </g>
    <g fill="rgb(255,204,0)" text-rendering="geometricPrecision" shape-rendering="geometricPrecision" transform="matrix(1,0,0,1,-232,-177)" stroke="rgb(255,204,0)">
      <rect x="804" y="465" clip-path="url(#clipPath2)" width="78" rx="4" ry="4" height="53" stroke="none"/>
    </g>
    <g text-rendering="geometricPrecision" stroke-miterlimit="1.45" shape-rendering="geometricPrecision" transform="matrix(1,0,0,1,-232,-177)" stroke-linecap="butt">
      <rect x="804" y="465" clip-path="url(#clipPath2)" fill="none" width="78" rx="4" ry="4" height="53"/>
      <text x="817.3184" xml:space="preserve" y="488.8633" clip-path="url(#clipPath2)" font-family="sans-serif" stroke="none">Targeted </text>
      <text x="827.332" xml:space="preserve" y="503.5645" clip-path="url(#clipPath2)" font-family="sans-serif" stroke="none">HCPs</text>
    </g>
    <g fill="rgb(255,204,0)" text-rendering="geometricPrecision" shape-rendering="geometricPrecision" transform="matrix(1,0,0,1,-232,-177)" stroke="rgb(255,204,0)">
      <rect x="677.0805" y="517.8533" clip-path="url(#clipPath2)" width="78" rx="4" ry="4" height="53" stroke="none"/>
    </g>
    <g text-rendering="geometricPrecision" stroke-miterlimit="1.45" shape-rendering="geometricPrecision" transform="matrix(1,0,0,1,-232,-177)" stroke-linecap="butt">
      <rect x="677.0805" y="517.8533" clip-path="url(#clipPath2)" fill="none" width="78" rx="4" ry="4" height="53"/>
      <text x="700.4125" xml:space="preserve" y="549.0671" clip-path="url(#clipPath2)" font-family="sans-serif" stroke="none">HCPs</text>
    </g>
    <g fill="rgb(255,204,0)" text-rendering="geometricPrecision" shape-rendering="geometricPrecision" transform="matrix(1,0,0,1,-232,-177)" stroke="rgb(255,204,0)">
      <rect x="943.5975" y="594.7084" clip-path="url(#clipPath2)" width="78" rx="4" ry="4" height="53" stroke="none"/>
    </g>
    <g text-rendering="geometricPrecision" stroke-miterlimit="1.45" shape-rendering="geometricPrecision" transform="matrix(1,0,0,1,-232,-177)" stroke-linecap="butt">
      <rect x="943.5975" y="594.7084" clip-path="url(#clipPath2)" fill="none" width="78" rx="4" ry="4" height="53"/>
      <text x="961.2606" xml:space="preserve" y="618.5717" clip-path="url(#clipPath2)" font-family="sans-serif" stroke="none">OverAll </text>
      <text x="963.9296" xml:space="preserve" y="633.2728" clip-path="url(#clipPath2)" font-family="sans-serif" stroke="none">Priority</text>
    </g>
    <g fill="rgb(255,204,0)" text-rendering="geometricPrecision" shape-rendering="geometricPrecision" transform="matrix(1,0,0,1,-232,-177)" stroke="rgb(255,204,0)">
      <rect x="949.7746" y="502.7084" clip-path="url(#clipPath2)" width="78" rx="4" ry="4" height="53" stroke="none"/>
    </g>
    <g text-rendering="geometricPrecision" stroke-miterlimit="1.45" shape-rendering="geometricPrecision" transform="matrix(1,0,0,1,-232,-177)" stroke-linecap="butt">
      <rect x="949.7746" y="502.7084" clip-path="url(#clipPath2)" fill="none" width="78" rx="4" ry="4" height="53"/>
      <text x="968.0969" xml:space="preserve" y="526.5717" clip-path="url(#clipPath2)" font-family="sans-serif" stroke="none">Product</text>
      <text x="970.1066" xml:space="preserve" y="541.2728" clip-path="url(#clipPath2)" font-family="sans-serif" stroke="none">Priority</text>
    </g>
    <g fill="rgb(255,204,0)" text-rendering="geometricPrecision" shape-rendering="geometricPrecision" transform="matrix(1,0,0,1,-232,-177)" stroke="rgb(255,204,0)">
      <rect x="770.3542" y="613.4972" clip-path="url(#clipPath2)" width="78" rx="4" ry="4" height="53" stroke="none"/>
    </g>
    <g text-rendering="geometricPrecision" stroke-miterlimit="1.45" shape-rendering="geometricPrecision" transform="matrix(1,0,0,1,-232,-177)" stroke-linecap="butt">
      <rect x="770.3542" y="613.4972" clip-path="url(#clipPath2)" fill="none" width="78" rx="4" ry="4" height="53"/>
      <text x="785.0085" xml:space="preserve" y="644.7111" clip-path="url(#clipPath2)" font-family="sans-serif" stroke="none">Specialty</text>
    </g>
    <g fill="rgb(255,204,0)" text-rendering="geometricPrecision" shape-rendering="geometricPrecision" transform="matrix(1,0,0,1,-232,-177)" stroke="rgb(255,204,0)">
      <rect x="501.5511" y="493.9982" clip-path="url(#clipPath2)" width="78" rx="4" ry="4" height="53" stroke="none"/>
    </g>
    <g text-rendering="geometricPrecision" stroke-miterlimit="1.45" shape-rendering="geometricPrecision" transform="matrix(1,0,0,1,-232,-177)" stroke-linecap="butt">
      <rect x="501.5511" y="493.9982" clip-path="url(#clipPath2)" fill="none" width="78" rx="4" ry="4" height="53"/>
      <text x="522.8851" xml:space="preserve" y="510.5109" clip-path="url(#clipPath2)" font-family="sans-serif" stroke="none">MCCP</text>
      <text x="523.2103" xml:space="preserve" y="525.212" clip-path="url(#clipPath2)" font-family="sans-serif" stroke="none">Target</text>
      <text x="524.8773" xml:space="preserve" y="539.9132" clip-path="url(#clipPath2)" font-family="sans-serif" stroke="none">Goals</text>
    </g>
    <g fill="rgb(255,153,204)" text-rendering="geometricPrecision" shape-rendering="geometricPrecision" transform="matrix(1,0,0,1,-232,-177)" stroke="rgb(255,153,204)">
      <rect x="247" y="482" clip-path="url(#clipPath2)" width="111" rx="4" ry="4" height="53" stroke="none"/>
    </g>
    <g text-rendering="geometricPrecision" stroke-miterlimit="1.45" shape-rendering="geometricPrecision" transform="matrix(1,0,0,1,-232,-177)" stroke-linecap="butt">
      <rect x="247" y="482" clip-path="url(#clipPath2)" fill="none" width="111" rx="4" ry="4" height="53"/>
      <text x="271.8262" xml:space="preserve" y="498.5127" clip-path="url(#clipPath2)" font-family="sans-serif" stroke="none">PromoMats</text>
      <text x="276.1562" xml:space="preserve" y="513.2139" clip-path="url(#clipPath2)" font-family="sans-serif" stroke="none">Franchise</text>
      <text x="263.9746" xml:space="preserve" y="527.915" clip-path="url(#clipPath2)" font-family="sans-serif" stroke="none">Local + Global</text>
    </g>
    <g fill="rgb(255,153,204)" text-rendering="geometricPrecision" shape-rendering="geometricPrecision" transform="matrix(1,0,0,1,-232,-177)" stroke="rgb(255,153,204)">
      <rect x="1248.1288" y="444.4186" clip-path="url(#clipPath2)" width="78" rx="4" ry="4" height="53" stroke="none"/>
    </g>
    <g text-rendering="geometricPrecision" stroke-miterlimit="1.45" shape-rendering="geometricPrecision" transform="matrix(1,0,0,1,-232,-177)" stroke-linecap="butt">
      <rect x="1248.1288" y="444.4186" clip-path="url(#clipPath2)" fill="none" width="78" rx="4" ry="4" height="53"/>
      <text x="1271.7977" xml:space="preserve" y="460.9313" clip-path="url(#clipPath2)" font-family="sans-serif" stroke="none">CRM </text>
      <text x="1260.785" xml:space="preserve" y="475.6324" clip-path="url(#clipPath2)" font-family="sans-serif" stroke="none">Franchise</text>
      <text x="1272.785" xml:space="preserve" y="490.3336" clip-path="url(#clipPath2)" font-family="sans-serif" stroke="none">Local</text>
    </g>
    <g fill="rgb(255,204,0)" text-rendering="geometricPrecision" shape-rendering="geometricPrecision" transform="matrix(1,0,0,1,-232,-177)" stroke="rgb(255,204,0)">
      <rect x="614.517" y="192.6762" clip-path="url(#clipPath2)" width="78" rx="4" ry="4" height="53" stroke="none"/>
    </g>
    <g text-rendering="geometricPrecision" stroke-miterlimit="1.45" shape-rendering="geometricPrecision" transform="matrix(1,0,0,1,-232,-177)" stroke-linecap="butt">
      <rect x="614.517" y="192.6762" clip-path="url(#clipPath2)" fill="none" width="78" rx="4" ry="4" height="53"/>
      <text x="639.5161" xml:space="preserve" y="216.5395" clip-path="url(#clipPath2)" font-family="sans-serif" stroke="none">F2F /</text>
      <text x="617.8276" xml:space="preserve" y="231.2406" clip-path="url(#clipPath2)" font-family="sans-serif" stroke="none">Engage Calls</text>
    </g>
    <g fill="rgb(255,153,204)" text-rendering="geometricPrecision" shape-rendering="geometricPrecision" transform="matrix(1,0,0,1,-232,-177)" stroke="rgb(255,153,204)">
      <rect x="1170.535" y="260.452" clip-path="url(#clipPath2)" width="102" rx="4" ry="4" height="77" stroke="none"/>
    </g>
    <g text-rendering="geometricPrecision" stroke-miterlimit="1.45" shape-rendering="geometricPrecision" transform="matrix(1,0,0,1,-232,-177)" stroke-linecap="butt">
      <rect x="1170.535" y="260.452" clip-path="url(#clipPath2)" fill="none" width="102" rx="4" ry="4" height="77"/>
      <text x="1174.5134" xml:space="preserve" y="296.3153" clip-path="url(#clipPath2)" font-family="sans-serif" stroke="none">Global Franchise </text>
      <text x="1193.5212" xml:space="preserve" y="311.0164" clip-path="url(#clipPath2)" font-family="sans-serif" stroke="none">Definitions</text>
    </g>
    <g fill="rgb(255,204,0)" text-rendering="geometricPrecision" shape-rendering="geometricPrecision" transform="matrix(1,0,0,1,-232,-177)" stroke="rgb(255,204,0)">
      <rect x="727.0842" y="192.0948" clip-path="url(#clipPath2)" width="118.3399" rx="4" ry="4" height="80.5492" stroke="none"/>
    </g>
    <g text-rendering="geometricPrecision" stroke-miterlimit="1.45" shape-rendering="geometricPrecision" transform="matrix(1,0,0,1,-232,-177)" stroke-linecap="butt">
      <rect x="727.0842" y="192.0948" clip-path="url(#clipPath2)" fill="none" width="118.3399" rx="4" ry="4" height="80.5492"/>
      <text x="744.2307" xml:space="preserve" y="215.0315" clip-path="url(#clipPath2)" font-family="sans-serif" stroke="none">Other Channels</text>
      <text x="767.5891" xml:space="preserve" y="229.7327" clip-path="url(#clipPath2)" font-family="sans-serif" stroke="none">SFMC/</text>
      <text x="750.2336" xml:space="preserve" y="244.4338" clip-path="url(#clipPath2)" font-family="sans-serif" stroke="none">Organon Pro/</text>
      <text x="743.5686" xml:space="preserve" y="259.135" clip-path="url(#clipPath2)" font-family="sans-serif" stroke="none">Events/ Exhibits</text>
    </g>
    <g fill="rgb(255,204,0)" text-rendering="geometricPrecision" shape-rendering="geometricPrecision" transform="matrix(1,0,0,1,-232,-177)" stroke="rgb(255,204,0)">
      <rect x="404.966" y="406.2594" clip-path="url(#clipPath2)" width="78" rx="4" ry="4" height="53" stroke="none"/>
    </g>
    <g text-rendering="geometricPrecision" stroke-miterlimit="1.45" shape-rendering="geometricPrecision" transform="matrix(1,0,0,1,-232,-177)" stroke-linecap="butt">
      <rect x="404.966" y="406.2594" clip-path="url(#clipPath2)" fill="none" width="78" rx="4" ry="4" height="53"/>
      <text x="412.9611" xml:space="preserve" y="437.4733" clip-path="url(#clipPath2)" font-family="sans-serif" stroke="none">FF - Events</text>
    </g>
    <g fill="rgb(255,204,0)" text-rendering="geometricPrecision" shape-rendering="geometricPrecision" transform="matrix(1,0,0,1,-232,-177)" stroke="rgb(255,204,0)">
      <rect x="917.2217" y="390.678" clip-path="url(#clipPath2)" width="78" rx="4" ry="4" height="53" stroke="none"/>
    </g>
    <g text-rendering="geometricPrecision" stroke-miterlimit="1.45" shape-rendering="geometricPrecision" transform="matrix(1,0,0,1,-232,-177)" stroke-linecap="butt">
      <rect x="917.2217" y="390.678" clip-path="url(#clipPath2)" fill="none" width="78" rx="4" ry="4" height="53"/>
      <text x="930.209" xml:space="preserve" y="407.1907" clip-path="url(#clipPath2)" font-family="sans-serif" stroke="none">Promoted</text>
      <text x="935.5439" xml:space="preserve" y="421.8919" clip-path="url(#clipPath2)" font-family="sans-serif" stroke="none">Product</text>
      <text x="934.8818" xml:space="preserve" y="436.593" clip-path="url(#clipPath2)" font-family="sans-serif" stroke="none">(details)</text>
      <path fill="none" d="M850.438 320.0511 L910.8588 319.722" clip-path="url(#clipPath2)"/>
      <path d="M918.8587 319.6784 L906.8317 314.7438 L909.8588 319.7274 L906.8861 324.7437 Z" clip-path="url(#clipPath2)" stroke="none"/>
      <path fill="none" d="M996.8591 318.5107 L1037.9404 317.5046" clip-path="url(#clipPath2)"/>
      <path d="M1045.938 317.3087 L1033.8192 312.604 L1036.9407 317.5291 L1034.064 322.601 Z" clip-path="url(#clipPath2)" stroke="none"/>
      <path fill="none" d="M772.4239 334.1355 L671.4935 370.0219" clip-path="url(#clipPath2)"/>
      <path d="M663.9558 372.702 L676.9374 373.393 L672.4357 369.6869 L673.5873 363.9708 Z" clip-path="url(#clipPath2)" stroke="none"/>
      <path fill="none" d="M1098.5266 342.8681 L1146.3689 436.3152" clip-path="url(#clipPath2)"/>
      <path d="M1150.0146 443.4362 L1148.9967 430.4762 L1145.9132 435.4251 L1140.0955 435.0334 Z" clip-path="url(#clipPath2)" stroke="none"/>
      <path fill="none" d="M585.9331 375.0847 L512.8947 353.6048" clip-path="url(#clipPath2)"/>
      <path d="M505.2197 351.3476 L515.3215 359.5302 L513.8541 353.8869 L518.1429 349.9365 Z" clip-path="url(#clipPath2)" stroke="none"/>
      <path fill="none" d="M520.7095 285.896 L347.9781 267.5025" clip-path="url(#clipPath2)"/>
      <path d="M340.0231 266.6554 L351.4262 272.8979 L348.9725 267.6084 L352.4851 262.9542 Z" clip-path="url(#clipPath2)" stroke="none"/>
      <path fill="none" d="M427.1937 321.6044 L347.2181 284.1469" clip-path="url(#clipPath2)"/>
      <path d="M339.9734 280.7537 L348.7198 290.3714 L348.1237 284.571 L352.9612 281.3155 Z" clip-path="url(#clipPath2)" stroke="none"/>
      <path fill="none" d="M301.3131 289.01 L302.092 354.9551" clip-path="url(#clipPath2)"/>
      <path d="M302.1865 362.9546 L307.0444 350.8963 L302.0802 353.9552 L297.0451 351.0144 Z" clip-path="url(#clipPath2)" stroke="none"/>
      <path fill="none" d="M816.3165 346.7265 L836.6705 457.1591" clip-path="url(#clipPath2)"/>
      <path d="M838.1206 465.0266 L840.8627 452.319 L836.4893 456.1756 L831.0283 454.1316 Z" clip-path="url(#clipPath2)" stroke="none"/>
      <path fill="none" d="M803.9883 507.7457 L762.4835 525.0296" clip-path="url(#clipPath2)"/>
      <path d="M755.0982 528.105 L768.0982 528.1077 L763.4066 524.6452 L764.2539 518.8761 Z" clip-path="url(#clipPath2)" stroke="none"/>
      <path fill="none" d="M640.2496 413.0295 L696.7695 510.9105" clip-path="url(#clipPath2)"/>
      <path d="M700.7699 517.8384 L699.0992 504.9462 L696.2694 510.0445 L690.4393 509.9467 Z" clip-path="url(#clipPath2)" stroke="none"/>
      <path fill="none" d="M755.0886 555.6019 L935.8909 607.7397" clip-path="url(#clipPath2)"/>
      <path d="M943.5777 609.9563 L933.4329 601.8271 L934.9301 607.4626 L930.6622 611.4356 Z" clip-path="url(#clipPath2)" stroke="none"/>
      <path fill="none" d="M755.0605 542.1884 L941.787 531.818" clip-path="url(#clipPath2)"/>
      <path d="M949.7747 531.3743 L937.5159 527.0475 L940.7886 531.8735 L938.0705 537.0321 Z" clip-path="url(#clipPath2)" stroke="none"/>
      <path fill="none" d="M1027.7427 516.0034 L1117.0487 485.7407" clip-path="url(#clipPath2)"/>
      <path d="M1124.6255 483.1732 L1111.6556 482.289 L1116.1016 486.0616 L1114.865 491.7599 Z" clip-path="url(#clipPath2)" stroke="none"/>
      <path fill="none" d="M986.9981 555.6674 L984.9147 586.6963" clip-path="url(#clipPath2)"/>
      <path d="M984.3788 594.6783 L990.1714 583.0403 L984.9818 585.6985 L980.1939 582.3704 Z" clip-path="url(#clipPath2)" stroke="none"/>
      <path fill="none" d="M741.9266 570.8561 L777.9237 607.768" clip-path="url(#clipPath2)"/>
      <path d="M783.5092 613.4954 L778.7106 601.4135 L777.2255 607.0521 L771.5514 608.3952 Z" clip-path="url(#clipPath2)" stroke="none"/>
      <path fill="none" d="M775.6932 346.686 L582.7206 489.3273" clip-path="url(#clipPath2)"/>
      <path d="M576.2874 494.0826 L588.9094 490.9705 L583.5248 488.7329 L582.9652 482.9289 Z" clip-path="url(#clipPath2)" stroke="none"/>
      <path fill="none" d="M579.5909 525.8038 L669.1326 537.9728" clip-path="url(#clipPath2)"/>
      <path d="M677.0597 539.0502 L665.8423 532.4797 L668.1417 537.8382 L664.4957 542.3886 Z" clip-path="url(#clipPath2)" stroke="none"/>
      <path fill="none" d="M557.2654 493.9795 L603.9914 419.8451" clip-path="url(#clipPath2)"/>
      <path d="M608.2571 413.0773 L597.6287 420.563 L603.4582 420.6911 L606.0884 425.8951 Z" clip-path="url(#clipPath2)" stroke="none"/>
      <path fill="none" d="M302.5 416.0251 L302.5 473.9948" clip-path="url(#clipPath2)"/>
      <path d="M302.5 481.9948 L307.5 469.9948 L302.5 472.9948 L297.5 469.9948 Z" clip-path="url(#clipPath2)" stroke="none"/>
      <path fill="none" d="M1202.5931 470.2673 L1240.1221 470.5564" clip-path="url(#clipPath2)"/>
      <path d="M1248.1218 470.6181 L1236.1608 465.5258 L1239.1221 470.5487 L1236.0836 475.5255 Z" clip-path="url(#clipPath2)" stroke="none"/>
      <path fill="none" d="M629.3732 360.0369 L647.0534 253.5754" clip-path="url(#clipPath2)"/>
      <path d="M648.364 245.6835 L641.4656 256.7023 L646.8896 254.5619 L651.3306 258.3405 Z" clip-path="url(#clipPath2)" stroke="none"/>
      <path fill="none" d="M618.4547 245.6671 L601.1743 258.723" clip-path="url(#clipPath2)"/>
      <path d="M594.7913 263.5456 L607.3799 260.3011 L601.9721 258.1202 L601.3516 252.3224 Z" clip-path="url(#clipPath2)" stroke="none"/>
      <path fill="none" d="M1206.6573 337.4521 L1168.5775 435.9951" clip-path="url(#clipPath2)"/>
      <path d="M1165.6938 443.4573 L1174.6832 434.0663 L1168.938 435.0623 L1165.3555 430.4617 Z" clip-path="url(#clipPath2)" stroke="none"/>
      <path fill="none" d="M585.9481 396.5229 L490.7141 420.8285" clip-path="url(#clipPath2)"/>
      <path d="M482.9625 422.8068 L495.8263 424.684 L491.683 420.5812 L493.3534 414.9946 Z" clip-path="url(#clipPath2)" stroke="none"/>
      <path fill="none" d="M482.9961 448.7656 L669.6701 525.3204" clip-path="url(#clipPath2)"/>
      <path d="M677.0718 528.3559 L667.8664 519.1766 L668.7449 524.941 L664.072 528.4288 Z" clip-path="url(#clipPath2)" stroke="none"/>
      <path fill="none" d="M663.9888 390.1706 L909.2651 412.8384" clip-path="url(#clipPath2)"/>
      <path d="M917.2311 413.5746 L905.7422 407.4915 L908.2693 412.7464 L904.822 417.4491 Z" clip-path="url(#clipPath2)" stroke="none"/>
      <path fill="none" d="M606.3179 304.992 L909.6307 402.24" clip-path="url(#clipPath2)"/>
      <path d="M598.6999 302.5495 L608.6004 310.9745 L607.2701 305.2973 L611.6535 301.4519 Z" clip-path="url(#clipPath2)" stroke="none"/>
      <path d="M917.2487 404.6825 L907.3483 396.2575 L908.6785 401.9347 L904.2951 405.78 Z" clip-path="url(#clipPath2)" stroke="none"/>
      <path fill="none" d="M995.2313 427.1082 L1116.8361 458.0634" clip-path="url(#clipPath2)"/>
      <path d="M1124.5889 460.037 L1114.1931 452.2312 L1115.8671 457.8168 L1111.7263 461.9222 Z" clip-path="url(#clipPath2)" stroke="none"/>
    </g>
  </g>
</svg>
